M48
; DRILL file {KiCad 8.0.5} date 2024-10-06T15:25:16+0200
; FORMAT={-:-/ absolute / inch / decimal}
; #@! TF.CreationDate,2024-10-06T15:25:16+02:00
; #@! TF.GenerationSoftware,Kicad,Pcbnew,8.0.5
; #@! TF.FileFunction,Plated,1,4,PTH
FMAT,2
INCH
; #@! TA.AperFunction,Plated,PTH,ViaDrill
T1C0.0100
; #@! TA.AperFunction,Plated,PTH,ViaDrill
T2C0.0157
; #@! TA.AperFunction,Plated,PTH,ComponentDrill
T3C0.0157
; #@! TA.AperFunction,Plated,PTH,ComponentDrill
T4C0.0236
; #@! TA.AperFunction,Plated,PTH,ViaDrill
T5C0.0394
; #@! TA.AperFunction,Plated,PTH,ComponentDrill
T6C0.0394
; #@! TA.AperFunction,Plated,PTH,ComponentDrill
T7C0.0866
%
G90
G05
T1
X4.4997Y-4.2569
X4.5158Y-4.273
X4.5471Y-3.7966
X4.5471Y-3.8193
X4.7097Y-3.5583
X4.7121Y-3.3827
X4.7412Y-3.7572
X4.7412Y-3.78
X4.7468Y-4.1642
X4.7468Y-4.1869
X4.7546Y-3.376
X4.7574Y-3.5445
X4.762Y-4.2594
X4.778Y-4.2433
X4.7901Y-3.7209
X4.8416Y-3.9382
X4.8735Y-4.5791
X4.8739Y-3.9587
X4.8908Y-4.1118
X4.8932Y-4.5787
X4.9086Y-3.3819
X4.9113Y-3.5291
X4.9168Y-4.5787
X4.9369Y-4.585
X4.9444Y-3.6504
X4.9578Y-3.4217
X4.9676Y-3.3846
X4.9678Y-4.2146
X5.0003Y-3.6685
X5.0168Y-3.9331
X5.0288Y-4.2252
X5.0357Y-3.9524
X5.1243Y-4.7
X5.1322Y-4.6252
X5.1361Y-4.5976
X5.1361Y-4.6528
X5.1361Y-4.6764
X5.1373Y-4.563
X5.1385Y-3.6626
X5.142Y-3.4366
X5.1609Y-4.1713
X5.1637Y-4.1346
X5.1716Y-4.4598
X5.1889Y-3.287
X5.1924Y-3.6988
X5.2113Y-3.7665
X5.218Y-3.548
X5.2255Y-4.187
X5.2491Y-3.7228
X5.2498Y-4.1836
X5.2651Y-4.0797
X5.2677Y-4.0555
X5.2688Y-3.752
X5.2771Y-4.1843
X5.2936Y-3.705
X5.2999Y-4.6634
X5.3067Y-4.1814
X5.307Y-4.6949
X5.3141Y-3.6098
X5.3192Y-4.6445
X5.3291Y-4.7244
X5.3373Y-4.6665
X5.3405Y-4.6945
X5.3412Y-4.1819
X5.3499Y-3.9031
X5.3586Y-4.0524
X5.3665Y-4.6409
X5.3672Y-4.7311
X5.3682Y-4.1781
X5.369Y-3.3168
X5.3692Y-4.0803
X5.3747Y-4.6669
X5.3755Y-4.6996
X5.3788Y-3.4783
X5.383Y-3.9035
X5.3944Y-4.1008
X5.3991Y-4.7335
X5.4027Y-4.6417
X5.4031Y-4.6705
X5.4105Y-4.1756
X5.4113Y-3.3661
X5.4113Y-4.2028
X5.4184Y-3.9055
X5.4381Y-3.5815
X5.4452Y-3.9071
X5.4708Y-3.9083
X5.4999Y-3.9063
X5.5116Y-3.3168
X5.5601Y-3.8374
X5.5609Y-3.4433
X5.5653Y-3.9547
X5.5712Y-4.1705
X5.5723Y-4.2024
X5.5743Y-3.9799
X5.5751Y-3.515
X5.581Y-4.515
X5.5818Y-4.0047
X5.5822Y-4.0524
X5.5849Y-4.0276
X5.585Y-4.5976
X5.5853Y-3.574
X5.5865Y-4.0756
X5.5964Y-3.9019
X5.5968Y-4.5307
X5.5971Y-4.5787
X5.5987Y-4.1043
X5.5991Y-4.5543
X5.6227Y-3.9012
X5.6231Y-3.8138
X5.6251Y-4.211
X5.6256Y-3.7039
X5.6273Y-3.849
X5.6356Y-3.8824
X5.6411Y-4.5029
X5.6483Y-3.6126
X5.6582Y-4.0169
X5.659Y-3.8193
X5.6714Y-4.4008
X5.6723Y-4.5091
X5.6747Y-4.5776
X5.6751Y-4.2589
X5.6963Y-4.4543
X5.7121Y-3.574
X5.7141Y-4.4827
X5.7153Y-3.6563
X5.7491Y-4.5059
X5.7751Y-3.3787
X5.7838Y-3.8504
X5.7906Y-4.0669
X5.7946Y-3.7323
X5.7993Y-3.6691
X5.7995Y-4.7575
X5.8184Y-4.2591
X5.8405Y-3.874
X5.8446Y-3.6707
X5.8517Y-4.0701
X5.8556Y-3.7949
X5.8608Y-3.734
X5.8798Y-3.6205
X5.8863Y-4.7283
X5.8873Y-4.463
X5.9007Y-3.6654
X5.9086Y-3.5248
X5.9178Y-4.0354
X5.9582Y-4.1768
X5.9601Y-3.5768
X5.9611Y-3.6417
X5.9617Y-4.611
X5.9857Y-3.874
X5.9956Y-3.7071
X6.0034Y-3.4352
X6.0164Y-3.7264
X6.0176Y-3.752
X6.0487Y-3.6063
X6.0515Y-4.1847
X6.0842Y-3.3654
X6.0893Y-4.2256
X6.1117Y-3.7138
X6.12Y-4.2933
X6.1318Y-3.7563
X6.1365Y-3.8626
X6.1389Y-4.0902
X6.1534Y-3.6807
X6.1653Y-3.8693
X6.1735Y-3.9831
X6.1924Y-3.4213
X6.1979Y-3.6295
X6.2023Y-4.2909
X6.2255Y-4.0913
X6.2287Y-3.6296
X6.2416Y-3.5177
X6.2515Y-3.6567
X6.2554Y-3.872
X6.2682Y-3.9512
X6.2979Y-3.7835
X6.3003Y-3.676
X6.3105Y-3.872
X6.3141Y-3.9728
X6.3164Y-3.8413
X6.3282Y-3.6811
X6.3369Y-3.5476
X6.3601Y-3.4071
X6.3932Y-4.4465
X6.4247Y-4.4492
X6.4519Y-4.0551
X6.4971Y-4.0681
X6.5262Y-3.5363
X6.5416Y-4.1717
X6.5704Y-3.6626
X6.5712Y-4.6098
X6.5719Y-3.9102
X6.5751Y-3.5154
X6.6137Y-3.8228
X6.6428Y-4.2701
X6.6428Y-4.3996
X6.6668Y-3.9154
X6.6775Y-3.4831
X6.679Y-4.2744
X6.7023Y-4.7192
X6.7168Y-3.45
X6.7282Y-4.3748
X6.7708Y-4.2638
X6.7759Y-4.2232
X6.833Y-4.4665
X6.844Y-3.6705
X6.8637Y-3.5717
X6.8645Y-4.2657
X6.8649Y-4.2272
X6.9182Y-4.2085
X6.9566Y-4.2882
X6.9597Y-4.2248
X6.9991Y-4.3815
X7.0046Y-4.543
X7.0046Y-4.5657
X7.118Y-4.4594
X7.1212Y-4.7075
X7.3066Y-3.4709
X7.3554Y-4.4819
X7.3574Y-4.4327
X7.3712Y-4.3343
X7.379Y-4.5417
X7.4034Y-4.3807
X7.4801Y-4.3686
X7.4848Y-4.5554
X7.5212Y-4.6466
X7.5408Y-4.3346
X7.5751Y-3.4571
X7.5794Y-3.8272
X7.5908Y-3.4453
X7.6062Y-3.772
X7.618Y-3.6382
X7.6314Y-4.3228
X7.6448Y-4.2303
X7.6877Y-3.4063
X7.6932Y-4.135
X7.7137Y-4.3598
X7.7243Y-4.3043
X7.7255Y-4.5642
X7.7263Y-3.2626
X7.7354Y-4.5846
X7.7574Y-4.5051
X7.7601Y-3.3264
X7.7977Y-3.4232
X7.8672Y-3.3217
X7.87Y-4.3343
X7.8731Y-4.7244
X7.8968Y-4.4988
X7.9212Y-3.4299
X7.9216Y-3.4602
X7.9601Y-4.6811
X7.9873Y-3.3177
X8.0164Y-4.3311
X8.0349Y-3.4535
X8.1621Y-3.5969
X8.2727Y-3.424
T2
X4.6889Y-4.1004
X4.6889Y-4.2957
X4.692Y-3.8965
X4.6924Y-3.6941
X4.8613Y-4.4657
X4.8995Y-4.4657
X4.9248Y-4.4853
X4.95Y-4.5105
X5.0806Y-4.4807
X5.1156Y-4.4807
X5.1456Y-4.4807
X6.0696Y-3.8957
X6.1444Y-3.9555
X7.6156Y-4.6465
T3
X7.5969Y-4.4644
X7.607Y-4.5021
X7.6345Y-4.4543
X7.6446Y-4.492
T5
X4.7475Y-4.6732
T6
X4.7641Y-4.3543
X4.8641Y-4.3543
X4.9641Y-4.3543
X5.0641Y-4.3543
X6.2357Y-3.3091
X6.4416Y-3.6228
X6.4416Y-3.7228
X6.4416Y-3.8228
X6.4416Y-3.9228
T7
X4.4995Y-3.3386
X4.4995Y-4.6772
X8.2003Y-3.3386
X8.2003Y-4.6772
T4
G00X4.4688Y-4.0264
M15
G01X4.4373Y-4.0264
M16
G05
G00X4.4688Y-4.3665
M15
G01X4.4373Y-4.3665
M16
G05
G00X4.4695Y-3.6182
M15
G01X4.438Y-3.6182
M16
G05
G00X4.4695Y-3.9584
M15
G01X4.438Y-3.9584
M16
G05
G00X4.6393Y-4.0264
M15
G01X4.596Y-4.0264
M16
G05
G00X4.6393Y-4.3665
M15
G01X4.596Y-4.3665
M16
G05
G00X4.64Y-3.6182
M15
G01X4.5967Y-3.6182
M16
G05
G00X4.64Y-3.9584
M15
G01X4.5967Y-3.9584
M16
G05
M30
