%TF.GenerationSoftware,KiCad,Pcbnew,8.0.5*%
%TF.CreationDate,2024-10-06T15:25:14+02:00*%
%TF.ProjectId,rpi-pico-esp32,7270692d-7069-4636-9f2d-65737033322e,rev?*%
%TF.SameCoordinates,Original*%
%TF.FileFunction,Paste,Top*%
%TF.FilePolarity,Positive*%
%FSLAX46Y46*%
G04 Gerber Fmt 4.6, Leading zero omitted, Abs format (unit mm)*
G04 Created by KiCad (PCBNEW 8.0.5) date 2024-10-06 15:25:14*
%MOMM*%
%LPD*%
G01*
G04 APERTURE LIST*
G04 Aperture macros list*
%AMRoundRect*
0 Rectangle with rounded corners*
0 $1 Rounding radius*
0 $2 $3 $4 $5 $6 $7 $8 $9 X,Y pos of 4 corners*
0 Add a 4 corners polygon primitive as box body*
4,1,4,$2,$3,$4,$5,$6,$7,$8,$9,$2,$3,0*
0 Add four circle primitives for the rounded corners*
1,1,$1+$1,$2,$3*
1,1,$1+$1,$4,$5*
1,1,$1+$1,$6,$7*
1,1,$1+$1,$8,$9*
0 Add four rect primitives between the rounded corners*
20,1,$1+$1,$2,$3,$4,$5,0*
20,1,$1+$1,$4,$5,$6,$7,0*
20,1,$1+$1,$6,$7,$8,$9,0*
20,1,$1+$1,$8,$9,$2,$3,0*%
G04 Aperture macros list end*
%ADD10C,0.010000*%
%ADD11R,1.400000X1.200000*%
%ADD12RoundRect,0.150000X-0.150000X0.650000X-0.150000X-0.650000X0.150000X-0.650000X0.150000X0.650000X0*%
%ADD13RoundRect,0.225000X-0.225000X-0.250000X0.225000X-0.250000X0.225000X0.250000X-0.225000X0.250000X0*%
%ADD14R,1.000000X1.000000*%
%ADD15R,2.200000X1.050000*%
%ADD16RoundRect,0.218750X0.256250X-0.218750X0.256250X0.218750X-0.256250X0.218750X-0.256250X-0.218750X0*%
%ADD17RoundRect,0.200000X0.275000X-0.200000X0.275000X0.200000X-0.275000X0.200000X-0.275000X-0.200000X0*%
%ADD18RoundRect,0.250000X0.250000X0.475000X-0.250000X0.475000X-0.250000X-0.475000X0.250000X-0.475000X0*%
%ADD19RoundRect,0.250000X-0.262500X-0.450000X0.262500X-0.450000X0.262500X0.450000X-0.262500X0.450000X0*%
%ADD20RoundRect,0.200000X-0.275000X0.200000X-0.275000X-0.200000X0.275000X-0.200000X0.275000X0.200000X0*%
%ADD21RoundRect,0.075000X0.725000X0.075000X-0.725000X0.075000X-0.725000X-0.075000X0.725000X-0.075000X0*%
%ADD22RoundRect,0.075000X0.075000X0.725000X-0.075000X0.725000X-0.075000X-0.725000X0.075000X-0.725000X0*%
%ADD23RoundRect,0.225000X0.225000X0.250000X-0.225000X0.250000X-0.225000X-0.250000X0.225000X-0.250000X0*%
%ADD24RoundRect,0.225000X0.250000X-0.225000X0.250000X0.225000X-0.250000X0.225000X-0.250000X-0.225000X0*%
%ADD25RoundRect,0.150000X-0.512500X-0.150000X0.512500X-0.150000X0.512500X0.150000X-0.512500X0.150000X0*%
%ADD26RoundRect,0.225000X-0.250000X0.225000X-0.250000X-0.225000X0.250000X-0.225000X0.250000X0.225000X0*%
%ADD27RoundRect,0.135000X0.135000X0.185000X-0.135000X0.185000X-0.135000X-0.185000X0.135000X-0.185000X0*%
%ADD28RoundRect,0.200000X-0.200000X-0.275000X0.200000X-0.275000X0.200000X0.275000X-0.200000X0.275000X0*%
%ADD29R,0.700000X1.600000*%
%ADD30R,1.200000X1.800000*%
%ADD31R,1.600000X1.500000*%
%ADD32R,1.200000X2.200000*%
%ADD33R,0.740000X2.400000*%
%ADD34RoundRect,0.140000X-0.140000X-0.170000X0.140000X-0.170000X0.140000X0.170000X-0.140000X0.170000X0*%
%ADD35R,1.000000X1.700000*%
%ADD36R,1.150000X0.600000*%
%ADD37R,1.150000X0.300000*%
%ADD38RoundRect,0.140000X0.170000X-0.140000X0.170000X0.140000X-0.170000X0.140000X-0.170000X-0.140000X0*%
%ADD39R,1.700000X1.000000*%
%ADD40RoundRect,0.150000X0.150000X-0.587500X0.150000X0.587500X-0.150000X0.587500X-0.150000X-0.587500X0*%
%ADD41R,1.000000X1.800000*%
%ADD42R,1.400000X1.000000*%
%ADD43R,4.000000X4.000000*%
%ADD44RoundRect,0.033750X0.097940X0.372137X-0.273310X-0.270887X-0.097940X-0.372137X0.273310X0.270887X0*%
%ADD45RoundRect,0.033750X-0.270887X0.273310X-0.372137X0.097940X0.270887X-0.273310X0.372137X-0.097940X0*%
%ADD46RoundRect,0.140000X0.140000X0.170000X-0.140000X0.170000X-0.140000X-0.170000X0.140000X-0.170000X0*%
%ADD47R,1.200000X1.400000*%
%ADD48RoundRect,0.135000X-0.135000X-0.185000X0.135000X-0.185000X0.135000X0.185000X-0.135000X0.185000X0*%
%ADD49RoundRect,0.200000X0.200000X0.275000X-0.200000X0.275000X-0.200000X-0.275000X0.200000X-0.275000X0*%
%ADD50R,0.800000X1.660000*%
%ADD51RoundRect,0.135000X0.185000X-0.135000X0.185000X0.135000X-0.185000X0.135000X-0.185000X-0.135000X0*%
%ADD52RoundRect,0.150000X-0.325000X-0.150000X0.325000X-0.150000X0.325000X0.150000X-0.325000X0.150000X0*%
%ADD53RoundRect,0.150000X-0.150000X-0.325000X0.150000X-0.325000X0.150000X0.325000X-0.150000X0.325000X0*%
%ADD54RoundRect,0.250000X-0.250000X-0.475000X0.250000X-0.475000X0.250000X0.475000X-0.250000X0.475000X0*%
%ADD55RoundRect,0.218750X-0.256250X0.218750X-0.256250X-0.218750X0.256250X-0.218750X0.256250X0.218750X0*%
%ADD56RoundRect,0.250000X0.475000X-0.250000X0.475000X0.250000X-0.475000X0.250000X-0.475000X-0.250000X0*%
%ADD57RoundRect,0.147500X-0.147500X-0.172500X0.147500X-0.172500X0.147500X0.172500X-0.147500X0.172500X0*%
%ADD58R,1.854200X2.209800*%
%ADD59R,1.500000X1.000000*%
%ADD60R,0.500000X0.300000*%
%ADD61RoundRect,0.375000X-0.625000X-0.375000X0.625000X-0.375000X0.625000X0.375000X-0.625000X0.375000X0*%
%ADD62RoundRect,0.500000X-0.500000X-1.400000X0.500000X-1.400000X0.500000X1.400000X-0.500000X1.400000X0*%
G04 APERTURE END LIST*
D10*
%TO.C,U9*%
X172959500Y-87623000D02*
X173011500Y-87631000D01*
X173062500Y-87644000D01*
X173110500Y-87663000D01*
X173157500Y-87687000D01*
X173201500Y-87715000D01*
X173242500Y-87748000D01*
X173279500Y-87785000D01*
X173312500Y-87826000D01*
X173340500Y-87870000D01*
X173364500Y-87917000D01*
X173383500Y-87965000D01*
X173396500Y-88016000D01*
X173404500Y-88068000D01*
X173407500Y-88120000D01*
X173404500Y-88172000D01*
X173396500Y-88224000D01*
X173383500Y-88275000D01*
X173364500Y-88323000D01*
X173340500Y-88370000D01*
X173312500Y-88414000D01*
X173279500Y-88455000D01*
X173242500Y-88492000D01*
X173201500Y-88525000D01*
X173157500Y-88553000D01*
X173110500Y-88577000D01*
X173062500Y-88596000D01*
X173011500Y-88609000D01*
X172959500Y-88617000D01*
X172907500Y-88620000D01*
X171107500Y-88620000D01*
X171055500Y-88617000D01*
X171003500Y-88609000D01*
X170952500Y-88596000D01*
X170904500Y-88577000D01*
X170857500Y-88553000D01*
X170813500Y-88525000D01*
X170772500Y-88492000D01*
X170735500Y-88455000D01*
X170702500Y-88414000D01*
X170674500Y-88370000D01*
X170650500Y-88323000D01*
X170631500Y-88275000D01*
X170618500Y-88224000D01*
X170610500Y-88172000D01*
X170607500Y-88120000D01*
X170610500Y-88068000D01*
X170618500Y-88016000D01*
X170631500Y-87965000D01*
X170650500Y-87917000D01*
X170674500Y-87870000D01*
X170702500Y-87826000D01*
X170735500Y-87785000D01*
X170772500Y-87748000D01*
X170813500Y-87715000D01*
X170857500Y-87687000D01*
X170904500Y-87663000D01*
X170952500Y-87644000D01*
X171003500Y-87631000D01*
X171055500Y-87623000D01*
X171107500Y-87620000D01*
X172907500Y-87620000D01*
X172959500Y-87623000D01*
G36*
X172959500Y-87623000D02*
G01*
X173011500Y-87631000D01*
X173062500Y-87644000D01*
X173110500Y-87663000D01*
X173157500Y-87687000D01*
X173201500Y-87715000D01*
X173242500Y-87748000D01*
X173279500Y-87785000D01*
X173312500Y-87826000D01*
X173340500Y-87870000D01*
X173364500Y-87917000D01*
X173383500Y-87965000D01*
X173396500Y-88016000D01*
X173404500Y-88068000D01*
X173407500Y-88120000D01*
X173404500Y-88172000D01*
X173396500Y-88224000D01*
X173383500Y-88275000D01*
X173364500Y-88323000D01*
X173340500Y-88370000D01*
X173312500Y-88414000D01*
X173279500Y-88455000D01*
X173242500Y-88492000D01*
X173201500Y-88525000D01*
X173157500Y-88553000D01*
X173110500Y-88577000D01*
X173062500Y-88596000D01*
X173011500Y-88609000D01*
X172959500Y-88617000D01*
X172907500Y-88620000D01*
X171107500Y-88620000D01*
X171055500Y-88617000D01*
X171003500Y-88609000D01*
X170952500Y-88596000D01*
X170904500Y-88577000D01*
X170857500Y-88553000D01*
X170813500Y-88525000D01*
X170772500Y-88492000D01*
X170735500Y-88455000D01*
X170702500Y-88414000D01*
X170674500Y-88370000D01*
X170650500Y-88323000D01*
X170631500Y-88275000D01*
X170618500Y-88224000D01*
X170610500Y-88172000D01*
X170607500Y-88120000D01*
X170610500Y-88068000D01*
X170618500Y-88016000D01*
X170631500Y-87965000D01*
X170650500Y-87917000D01*
X170674500Y-87870000D01*
X170702500Y-87826000D01*
X170735500Y-87785000D01*
X170772500Y-87748000D01*
X170813500Y-87715000D01*
X170857500Y-87687000D01*
X170904500Y-87663000D01*
X170952500Y-87644000D01*
X171003500Y-87631000D01*
X171055500Y-87623000D01*
X171107500Y-87620000D01*
X172907500Y-87620000D01*
X172959500Y-87623000D01*
G37*
X172959500Y-90163000D02*
X173011500Y-90171000D01*
X173062500Y-90184000D01*
X173110500Y-90203000D01*
X173157500Y-90227000D01*
X173201500Y-90255000D01*
X173242500Y-90288000D01*
X173279500Y-90325000D01*
X173312500Y-90366000D01*
X173340500Y-90410000D01*
X173364500Y-90457000D01*
X173383500Y-90505000D01*
X173396500Y-90556000D01*
X173404500Y-90608000D01*
X173407500Y-90660000D01*
X173404500Y-90712000D01*
X173396500Y-90764000D01*
X173383500Y-90815000D01*
X173364500Y-90863000D01*
X173340500Y-90910000D01*
X173312500Y-90954000D01*
X173279500Y-90995000D01*
X173242500Y-91032000D01*
X173201500Y-91065000D01*
X173157500Y-91093000D01*
X173110500Y-91117000D01*
X173062500Y-91136000D01*
X173011500Y-91149000D01*
X172959500Y-91157000D01*
X172907500Y-91160000D01*
X171107500Y-91160000D01*
X171055500Y-91157000D01*
X171003500Y-91149000D01*
X170952500Y-91136000D01*
X170904500Y-91117000D01*
X170857500Y-91093000D01*
X170813500Y-91065000D01*
X170772500Y-91032000D01*
X170735500Y-90995000D01*
X170702500Y-90954000D01*
X170674500Y-90910000D01*
X170650500Y-90863000D01*
X170631500Y-90815000D01*
X170618500Y-90764000D01*
X170610500Y-90712000D01*
X170607500Y-90660000D01*
X170610500Y-90608000D01*
X170618500Y-90556000D01*
X170631500Y-90505000D01*
X170650500Y-90457000D01*
X170674500Y-90410000D01*
X170702500Y-90366000D01*
X170735500Y-90325000D01*
X170772500Y-90288000D01*
X170813500Y-90255000D01*
X170857500Y-90227000D01*
X170904500Y-90203000D01*
X170952500Y-90184000D01*
X171003500Y-90171000D01*
X171055500Y-90163000D01*
X171107500Y-90160000D01*
X172907500Y-90160000D01*
X172959500Y-90163000D01*
G36*
X172959500Y-90163000D02*
G01*
X173011500Y-90171000D01*
X173062500Y-90184000D01*
X173110500Y-90203000D01*
X173157500Y-90227000D01*
X173201500Y-90255000D01*
X173242500Y-90288000D01*
X173279500Y-90325000D01*
X173312500Y-90366000D01*
X173340500Y-90410000D01*
X173364500Y-90457000D01*
X173383500Y-90505000D01*
X173396500Y-90556000D01*
X173404500Y-90608000D01*
X173407500Y-90660000D01*
X173404500Y-90712000D01*
X173396500Y-90764000D01*
X173383500Y-90815000D01*
X173364500Y-90863000D01*
X173340500Y-90910000D01*
X173312500Y-90954000D01*
X173279500Y-90995000D01*
X173242500Y-91032000D01*
X173201500Y-91065000D01*
X173157500Y-91093000D01*
X173110500Y-91117000D01*
X173062500Y-91136000D01*
X173011500Y-91149000D01*
X172959500Y-91157000D01*
X172907500Y-91160000D01*
X171107500Y-91160000D01*
X171055500Y-91157000D01*
X171003500Y-91149000D01*
X170952500Y-91136000D01*
X170904500Y-91117000D01*
X170857500Y-91093000D01*
X170813500Y-91065000D01*
X170772500Y-91032000D01*
X170735500Y-90995000D01*
X170702500Y-90954000D01*
X170674500Y-90910000D01*
X170650500Y-90863000D01*
X170631500Y-90815000D01*
X170618500Y-90764000D01*
X170610500Y-90712000D01*
X170607500Y-90660000D01*
X170610500Y-90608000D01*
X170618500Y-90556000D01*
X170631500Y-90505000D01*
X170650500Y-90457000D01*
X170674500Y-90410000D01*
X170702500Y-90366000D01*
X170735500Y-90325000D01*
X170772500Y-90288000D01*
X170813500Y-90255000D01*
X170857500Y-90227000D01*
X170904500Y-90203000D01*
X170952500Y-90184000D01*
X171003500Y-90171000D01*
X171055500Y-90163000D01*
X171107500Y-90160000D01*
X172907500Y-90160000D01*
X172959500Y-90163000D01*
G37*
X172959500Y-92703000D02*
X173011500Y-92711000D01*
X173062500Y-92724000D01*
X173110500Y-92743000D01*
X173157500Y-92767000D01*
X173201500Y-92795000D01*
X173242500Y-92828000D01*
X173279500Y-92865000D01*
X173312500Y-92906000D01*
X173340500Y-92950000D01*
X173364500Y-92997000D01*
X173383500Y-93045000D01*
X173396500Y-93096000D01*
X173404500Y-93148000D01*
X173407500Y-93200000D01*
X173404500Y-93252000D01*
X173396500Y-93304000D01*
X173383500Y-93355000D01*
X173364500Y-93403000D01*
X173340500Y-93450000D01*
X173312500Y-93494000D01*
X173279500Y-93535000D01*
X173242500Y-93572000D01*
X173201500Y-93605000D01*
X173157500Y-93633000D01*
X173110500Y-93657000D01*
X173062500Y-93676000D01*
X173011500Y-93689000D01*
X172959500Y-93697000D01*
X172907500Y-93700000D01*
X171107500Y-93700000D01*
X171055500Y-93697000D01*
X171003500Y-93689000D01*
X170952500Y-93676000D01*
X170904500Y-93657000D01*
X170857500Y-93633000D01*
X170813500Y-93605000D01*
X170772500Y-93572000D01*
X170735500Y-93535000D01*
X170702500Y-93494000D01*
X170674500Y-93450000D01*
X170650500Y-93403000D01*
X170631500Y-93355000D01*
X170618500Y-93304000D01*
X170610500Y-93252000D01*
X170607500Y-93200000D01*
X170610500Y-93148000D01*
X170618500Y-93096000D01*
X170631500Y-93045000D01*
X170650500Y-92997000D01*
X170674500Y-92950000D01*
X170702500Y-92906000D01*
X170735500Y-92865000D01*
X170772500Y-92828000D01*
X170813500Y-92795000D01*
X170857500Y-92767000D01*
X170904500Y-92743000D01*
X170952500Y-92724000D01*
X171003500Y-92711000D01*
X171055500Y-92703000D01*
X171107500Y-92700000D01*
X172907500Y-92700000D01*
X172959500Y-92703000D01*
G36*
X172959500Y-92703000D02*
G01*
X173011500Y-92711000D01*
X173062500Y-92724000D01*
X173110500Y-92743000D01*
X173157500Y-92767000D01*
X173201500Y-92795000D01*
X173242500Y-92828000D01*
X173279500Y-92865000D01*
X173312500Y-92906000D01*
X173340500Y-92950000D01*
X173364500Y-92997000D01*
X173383500Y-93045000D01*
X173396500Y-93096000D01*
X173404500Y-93148000D01*
X173407500Y-93200000D01*
X173404500Y-93252000D01*
X173396500Y-93304000D01*
X173383500Y-93355000D01*
X173364500Y-93403000D01*
X173340500Y-93450000D01*
X173312500Y-93494000D01*
X173279500Y-93535000D01*
X173242500Y-93572000D01*
X173201500Y-93605000D01*
X173157500Y-93633000D01*
X173110500Y-93657000D01*
X173062500Y-93676000D01*
X173011500Y-93689000D01*
X172959500Y-93697000D01*
X172907500Y-93700000D01*
X171107500Y-93700000D01*
X171055500Y-93697000D01*
X171003500Y-93689000D01*
X170952500Y-93676000D01*
X170904500Y-93657000D01*
X170857500Y-93633000D01*
X170813500Y-93605000D01*
X170772500Y-93572000D01*
X170735500Y-93535000D01*
X170702500Y-93494000D01*
X170674500Y-93450000D01*
X170650500Y-93403000D01*
X170631500Y-93355000D01*
X170618500Y-93304000D01*
X170610500Y-93252000D01*
X170607500Y-93200000D01*
X170610500Y-93148000D01*
X170618500Y-93096000D01*
X170631500Y-93045000D01*
X170650500Y-92997000D01*
X170674500Y-92950000D01*
X170702500Y-92906000D01*
X170735500Y-92865000D01*
X170772500Y-92828000D01*
X170813500Y-92795000D01*
X170857500Y-92767000D01*
X170904500Y-92743000D01*
X170952500Y-92724000D01*
X171003500Y-92711000D01*
X171055500Y-92703000D01*
X171107500Y-92700000D01*
X172907500Y-92700000D01*
X172959500Y-92703000D01*
G37*
X172959500Y-95243000D02*
X173011500Y-95251000D01*
X173062500Y-95264000D01*
X173110500Y-95283000D01*
X173157500Y-95307000D01*
X173201500Y-95335000D01*
X173242500Y-95368000D01*
X173279500Y-95405000D01*
X173312500Y-95446000D01*
X173340500Y-95490000D01*
X173364500Y-95537000D01*
X173383500Y-95585000D01*
X173396500Y-95636000D01*
X173404500Y-95688000D01*
X173407500Y-95740000D01*
X173404500Y-95792000D01*
X173396500Y-95844000D01*
X173383500Y-95895000D01*
X173364500Y-95943000D01*
X173340500Y-95990000D01*
X173312500Y-96034000D01*
X173279500Y-96075000D01*
X173242500Y-96112000D01*
X173201500Y-96145000D01*
X173157500Y-96173000D01*
X173110500Y-96197000D01*
X173062500Y-96216000D01*
X173011500Y-96229000D01*
X172959500Y-96237000D01*
X172907500Y-96240000D01*
X171107500Y-96240000D01*
X171055500Y-96237000D01*
X171003500Y-96229000D01*
X170952500Y-96216000D01*
X170904500Y-96197000D01*
X170857500Y-96173000D01*
X170813500Y-96145000D01*
X170772500Y-96112000D01*
X170735500Y-96075000D01*
X170702500Y-96034000D01*
X170674500Y-95990000D01*
X170650500Y-95943000D01*
X170631500Y-95895000D01*
X170618500Y-95844000D01*
X170610500Y-95792000D01*
X170607500Y-95740000D01*
X170610500Y-95688000D01*
X170618500Y-95636000D01*
X170631500Y-95585000D01*
X170650500Y-95537000D01*
X170674500Y-95490000D01*
X170702500Y-95446000D01*
X170735500Y-95405000D01*
X170772500Y-95368000D01*
X170813500Y-95335000D01*
X170857500Y-95307000D01*
X170904500Y-95283000D01*
X170952500Y-95264000D01*
X171003500Y-95251000D01*
X171055500Y-95243000D01*
X171107500Y-95240000D01*
X172907500Y-95240000D01*
X172959500Y-95243000D01*
G36*
X172959500Y-95243000D02*
G01*
X173011500Y-95251000D01*
X173062500Y-95264000D01*
X173110500Y-95283000D01*
X173157500Y-95307000D01*
X173201500Y-95335000D01*
X173242500Y-95368000D01*
X173279500Y-95405000D01*
X173312500Y-95446000D01*
X173340500Y-95490000D01*
X173364500Y-95537000D01*
X173383500Y-95585000D01*
X173396500Y-95636000D01*
X173404500Y-95688000D01*
X173407500Y-95740000D01*
X173404500Y-95792000D01*
X173396500Y-95844000D01*
X173383500Y-95895000D01*
X173364500Y-95943000D01*
X173340500Y-95990000D01*
X173312500Y-96034000D01*
X173279500Y-96075000D01*
X173242500Y-96112000D01*
X173201500Y-96145000D01*
X173157500Y-96173000D01*
X173110500Y-96197000D01*
X173062500Y-96216000D01*
X173011500Y-96229000D01*
X172959500Y-96237000D01*
X172907500Y-96240000D01*
X171107500Y-96240000D01*
X171055500Y-96237000D01*
X171003500Y-96229000D01*
X170952500Y-96216000D01*
X170904500Y-96197000D01*
X170857500Y-96173000D01*
X170813500Y-96145000D01*
X170772500Y-96112000D01*
X170735500Y-96075000D01*
X170702500Y-96034000D01*
X170674500Y-95990000D01*
X170650500Y-95943000D01*
X170631500Y-95895000D01*
X170618500Y-95844000D01*
X170610500Y-95792000D01*
X170607500Y-95740000D01*
X170610500Y-95688000D01*
X170618500Y-95636000D01*
X170631500Y-95585000D01*
X170650500Y-95537000D01*
X170674500Y-95490000D01*
X170702500Y-95446000D01*
X170735500Y-95405000D01*
X170772500Y-95368000D01*
X170813500Y-95335000D01*
X170857500Y-95307000D01*
X170904500Y-95283000D01*
X170952500Y-95264000D01*
X171003500Y-95251000D01*
X171055500Y-95243000D01*
X171107500Y-95240000D01*
X172907500Y-95240000D01*
X172959500Y-95243000D01*
G37*
X172959500Y-97783000D02*
X173011500Y-97791000D01*
X173062500Y-97804000D01*
X173110500Y-97823000D01*
X173157500Y-97847000D01*
X173201500Y-97875000D01*
X173242500Y-97908000D01*
X173279500Y-97945000D01*
X173312500Y-97986000D01*
X173340500Y-98030000D01*
X173364500Y-98077000D01*
X173383500Y-98125000D01*
X173396500Y-98176000D01*
X173404500Y-98228000D01*
X173407500Y-98280000D01*
X173404500Y-98332000D01*
X173396500Y-98384000D01*
X173383500Y-98435000D01*
X173364500Y-98483000D01*
X173340500Y-98530000D01*
X173312500Y-98574000D01*
X173279500Y-98615000D01*
X173242500Y-98652000D01*
X173201500Y-98685000D01*
X173157500Y-98713000D01*
X173110500Y-98737000D01*
X173062500Y-98756000D01*
X173011500Y-98769000D01*
X172959500Y-98777000D01*
X172907500Y-98780000D01*
X171107500Y-98780000D01*
X171055500Y-98777000D01*
X171003500Y-98769000D01*
X170952500Y-98756000D01*
X170904500Y-98737000D01*
X170857500Y-98713000D01*
X170813500Y-98685000D01*
X170772500Y-98652000D01*
X170735500Y-98615000D01*
X170702500Y-98574000D01*
X170674500Y-98530000D01*
X170650500Y-98483000D01*
X170631500Y-98435000D01*
X170618500Y-98384000D01*
X170610500Y-98332000D01*
X170607500Y-98280000D01*
X170610500Y-98228000D01*
X170618500Y-98176000D01*
X170631500Y-98125000D01*
X170650500Y-98077000D01*
X170674500Y-98030000D01*
X170702500Y-97986000D01*
X170735500Y-97945000D01*
X170772500Y-97908000D01*
X170813500Y-97875000D01*
X170857500Y-97847000D01*
X170904500Y-97823000D01*
X170952500Y-97804000D01*
X171003500Y-97791000D01*
X171055500Y-97783000D01*
X171107500Y-97780000D01*
X172907500Y-97780000D01*
X172959500Y-97783000D01*
G36*
X172959500Y-97783000D02*
G01*
X173011500Y-97791000D01*
X173062500Y-97804000D01*
X173110500Y-97823000D01*
X173157500Y-97847000D01*
X173201500Y-97875000D01*
X173242500Y-97908000D01*
X173279500Y-97945000D01*
X173312500Y-97986000D01*
X173340500Y-98030000D01*
X173364500Y-98077000D01*
X173383500Y-98125000D01*
X173396500Y-98176000D01*
X173404500Y-98228000D01*
X173407500Y-98280000D01*
X173404500Y-98332000D01*
X173396500Y-98384000D01*
X173383500Y-98435000D01*
X173364500Y-98483000D01*
X173340500Y-98530000D01*
X173312500Y-98574000D01*
X173279500Y-98615000D01*
X173242500Y-98652000D01*
X173201500Y-98685000D01*
X173157500Y-98713000D01*
X173110500Y-98737000D01*
X173062500Y-98756000D01*
X173011500Y-98769000D01*
X172959500Y-98777000D01*
X172907500Y-98780000D01*
X171107500Y-98780000D01*
X171055500Y-98777000D01*
X171003500Y-98769000D01*
X170952500Y-98756000D01*
X170904500Y-98737000D01*
X170857500Y-98713000D01*
X170813500Y-98685000D01*
X170772500Y-98652000D01*
X170735500Y-98615000D01*
X170702500Y-98574000D01*
X170674500Y-98530000D01*
X170650500Y-98483000D01*
X170631500Y-98435000D01*
X170618500Y-98384000D01*
X170610500Y-98332000D01*
X170607500Y-98280000D01*
X170610500Y-98228000D01*
X170618500Y-98176000D01*
X170631500Y-98125000D01*
X170650500Y-98077000D01*
X170674500Y-98030000D01*
X170702500Y-97986000D01*
X170735500Y-97945000D01*
X170772500Y-97908000D01*
X170813500Y-97875000D01*
X170857500Y-97847000D01*
X170904500Y-97823000D01*
X170952500Y-97804000D01*
X171003500Y-97791000D01*
X171055500Y-97783000D01*
X171107500Y-97780000D01*
X172907500Y-97780000D01*
X172959500Y-97783000D01*
G37*
X172959500Y-100323000D02*
X173011500Y-100331000D01*
X173062500Y-100344000D01*
X173110500Y-100363000D01*
X173157500Y-100387000D01*
X173201500Y-100415000D01*
X173242500Y-100448000D01*
X173279500Y-100485000D01*
X173312500Y-100526000D01*
X173340500Y-100570000D01*
X173364500Y-100617000D01*
X173383500Y-100665000D01*
X173396500Y-100716000D01*
X173404500Y-100768000D01*
X173407500Y-100820000D01*
X173404500Y-100872000D01*
X173396500Y-100924000D01*
X173383500Y-100975000D01*
X173364500Y-101023000D01*
X173340500Y-101070000D01*
X173312500Y-101114000D01*
X173279500Y-101155000D01*
X173242500Y-101192000D01*
X173201500Y-101225000D01*
X173157500Y-101253000D01*
X173110500Y-101277000D01*
X173062500Y-101296000D01*
X173011500Y-101309000D01*
X172959500Y-101317000D01*
X172907500Y-101320000D01*
X171107500Y-101320000D01*
X171055500Y-101317000D01*
X171003500Y-101309000D01*
X170952500Y-101296000D01*
X170904500Y-101277000D01*
X170857500Y-101253000D01*
X170813500Y-101225000D01*
X170772500Y-101192000D01*
X170735500Y-101155000D01*
X170702500Y-101114000D01*
X170674500Y-101070000D01*
X170650500Y-101023000D01*
X170631500Y-100975000D01*
X170618500Y-100924000D01*
X170610500Y-100872000D01*
X170607500Y-100820000D01*
X170610500Y-100768000D01*
X170618500Y-100716000D01*
X170631500Y-100665000D01*
X170650500Y-100617000D01*
X170674500Y-100570000D01*
X170702500Y-100526000D01*
X170735500Y-100485000D01*
X170772500Y-100448000D01*
X170813500Y-100415000D01*
X170857500Y-100387000D01*
X170904500Y-100363000D01*
X170952500Y-100344000D01*
X171003500Y-100331000D01*
X171055500Y-100323000D01*
X171107500Y-100320000D01*
X172907500Y-100320000D01*
X172959500Y-100323000D01*
G36*
X172959500Y-100323000D02*
G01*
X173011500Y-100331000D01*
X173062500Y-100344000D01*
X173110500Y-100363000D01*
X173157500Y-100387000D01*
X173201500Y-100415000D01*
X173242500Y-100448000D01*
X173279500Y-100485000D01*
X173312500Y-100526000D01*
X173340500Y-100570000D01*
X173364500Y-100617000D01*
X173383500Y-100665000D01*
X173396500Y-100716000D01*
X173404500Y-100768000D01*
X173407500Y-100820000D01*
X173404500Y-100872000D01*
X173396500Y-100924000D01*
X173383500Y-100975000D01*
X173364500Y-101023000D01*
X173340500Y-101070000D01*
X173312500Y-101114000D01*
X173279500Y-101155000D01*
X173242500Y-101192000D01*
X173201500Y-101225000D01*
X173157500Y-101253000D01*
X173110500Y-101277000D01*
X173062500Y-101296000D01*
X173011500Y-101309000D01*
X172959500Y-101317000D01*
X172907500Y-101320000D01*
X171107500Y-101320000D01*
X171055500Y-101317000D01*
X171003500Y-101309000D01*
X170952500Y-101296000D01*
X170904500Y-101277000D01*
X170857500Y-101253000D01*
X170813500Y-101225000D01*
X170772500Y-101192000D01*
X170735500Y-101155000D01*
X170702500Y-101114000D01*
X170674500Y-101070000D01*
X170650500Y-101023000D01*
X170631500Y-100975000D01*
X170618500Y-100924000D01*
X170610500Y-100872000D01*
X170607500Y-100820000D01*
X170610500Y-100768000D01*
X170618500Y-100716000D01*
X170631500Y-100665000D01*
X170650500Y-100617000D01*
X170674500Y-100570000D01*
X170702500Y-100526000D01*
X170735500Y-100485000D01*
X170772500Y-100448000D01*
X170813500Y-100415000D01*
X170857500Y-100387000D01*
X170904500Y-100363000D01*
X170952500Y-100344000D01*
X171003500Y-100331000D01*
X171055500Y-100323000D01*
X171107500Y-100320000D01*
X172907500Y-100320000D01*
X172959500Y-100323000D01*
G37*
X188959500Y-87623000D02*
X189011500Y-87631000D01*
X189062500Y-87644000D01*
X189110500Y-87663000D01*
X189157500Y-87687000D01*
X189201500Y-87715000D01*
X189242500Y-87748000D01*
X189279500Y-87785000D01*
X189312500Y-87826000D01*
X189340500Y-87870000D01*
X189364500Y-87917000D01*
X189383500Y-87965000D01*
X189396500Y-88016000D01*
X189404500Y-88068000D01*
X189407500Y-88120000D01*
X189404500Y-88172000D01*
X189396500Y-88224000D01*
X189383500Y-88275000D01*
X189364500Y-88323000D01*
X189340500Y-88370000D01*
X189312500Y-88414000D01*
X189279500Y-88455000D01*
X189242500Y-88492000D01*
X189201500Y-88525000D01*
X189157500Y-88553000D01*
X189110500Y-88577000D01*
X189062500Y-88596000D01*
X189011500Y-88609000D01*
X188959500Y-88617000D01*
X188907500Y-88620000D01*
X187107500Y-88620000D01*
X187055500Y-88617000D01*
X187003500Y-88609000D01*
X186952500Y-88596000D01*
X186904500Y-88577000D01*
X186857500Y-88553000D01*
X186813500Y-88525000D01*
X186772500Y-88492000D01*
X186735500Y-88455000D01*
X186702500Y-88414000D01*
X186674500Y-88370000D01*
X186650500Y-88323000D01*
X186631500Y-88275000D01*
X186618500Y-88224000D01*
X186610500Y-88172000D01*
X186607500Y-88120000D01*
X186610500Y-88068000D01*
X186618500Y-88016000D01*
X186631500Y-87965000D01*
X186650500Y-87917000D01*
X186674500Y-87870000D01*
X186702500Y-87826000D01*
X186735500Y-87785000D01*
X186772500Y-87748000D01*
X186813500Y-87715000D01*
X186857500Y-87687000D01*
X186904500Y-87663000D01*
X186952500Y-87644000D01*
X187003500Y-87631000D01*
X187055500Y-87623000D01*
X187107500Y-87620000D01*
X188907500Y-87620000D01*
X188959500Y-87623000D01*
G36*
X188959500Y-87623000D02*
G01*
X189011500Y-87631000D01*
X189062500Y-87644000D01*
X189110500Y-87663000D01*
X189157500Y-87687000D01*
X189201500Y-87715000D01*
X189242500Y-87748000D01*
X189279500Y-87785000D01*
X189312500Y-87826000D01*
X189340500Y-87870000D01*
X189364500Y-87917000D01*
X189383500Y-87965000D01*
X189396500Y-88016000D01*
X189404500Y-88068000D01*
X189407500Y-88120000D01*
X189404500Y-88172000D01*
X189396500Y-88224000D01*
X189383500Y-88275000D01*
X189364500Y-88323000D01*
X189340500Y-88370000D01*
X189312500Y-88414000D01*
X189279500Y-88455000D01*
X189242500Y-88492000D01*
X189201500Y-88525000D01*
X189157500Y-88553000D01*
X189110500Y-88577000D01*
X189062500Y-88596000D01*
X189011500Y-88609000D01*
X188959500Y-88617000D01*
X188907500Y-88620000D01*
X187107500Y-88620000D01*
X187055500Y-88617000D01*
X187003500Y-88609000D01*
X186952500Y-88596000D01*
X186904500Y-88577000D01*
X186857500Y-88553000D01*
X186813500Y-88525000D01*
X186772500Y-88492000D01*
X186735500Y-88455000D01*
X186702500Y-88414000D01*
X186674500Y-88370000D01*
X186650500Y-88323000D01*
X186631500Y-88275000D01*
X186618500Y-88224000D01*
X186610500Y-88172000D01*
X186607500Y-88120000D01*
X186610500Y-88068000D01*
X186618500Y-88016000D01*
X186631500Y-87965000D01*
X186650500Y-87917000D01*
X186674500Y-87870000D01*
X186702500Y-87826000D01*
X186735500Y-87785000D01*
X186772500Y-87748000D01*
X186813500Y-87715000D01*
X186857500Y-87687000D01*
X186904500Y-87663000D01*
X186952500Y-87644000D01*
X187003500Y-87631000D01*
X187055500Y-87623000D01*
X187107500Y-87620000D01*
X188907500Y-87620000D01*
X188959500Y-87623000D01*
G37*
X188959500Y-90163000D02*
X189011500Y-90171000D01*
X189062500Y-90184000D01*
X189110500Y-90203000D01*
X189157500Y-90227000D01*
X189201500Y-90255000D01*
X189242500Y-90288000D01*
X189279500Y-90325000D01*
X189312500Y-90366000D01*
X189340500Y-90410000D01*
X189364500Y-90457000D01*
X189383500Y-90505000D01*
X189396500Y-90556000D01*
X189404500Y-90608000D01*
X189407500Y-90660000D01*
X189404500Y-90712000D01*
X189396500Y-90764000D01*
X189383500Y-90815000D01*
X189364500Y-90863000D01*
X189340500Y-90910000D01*
X189312500Y-90954000D01*
X189279500Y-90995000D01*
X189242500Y-91032000D01*
X189201500Y-91065000D01*
X189157500Y-91093000D01*
X189110500Y-91117000D01*
X189062500Y-91136000D01*
X189011500Y-91149000D01*
X188959500Y-91157000D01*
X188907500Y-91160000D01*
X187107500Y-91160000D01*
X187055500Y-91157000D01*
X187003500Y-91149000D01*
X186952500Y-91136000D01*
X186904500Y-91117000D01*
X186857500Y-91093000D01*
X186813500Y-91065000D01*
X186772500Y-91032000D01*
X186735500Y-90995000D01*
X186702500Y-90954000D01*
X186674500Y-90910000D01*
X186650500Y-90863000D01*
X186631500Y-90815000D01*
X186618500Y-90764000D01*
X186610500Y-90712000D01*
X186607500Y-90660000D01*
X186610500Y-90608000D01*
X186618500Y-90556000D01*
X186631500Y-90505000D01*
X186650500Y-90457000D01*
X186674500Y-90410000D01*
X186702500Y-90366000D01*
X186735500Y-90325000D01*
X186772500Y-90288000D01*
X186813500Y-90255000D01*
X186857500Y-90227000D01*
X186904500Y-90203000D01*
X186952500Y-90184000D01*
X187003500Y-90171000D01*
X187055500Y-90163000D01*
X187107500Y-90160000D01*
X188907500Y-90160000D01*
X188959500Y-90163000D01*
G36*
X188959500Y-90163000D02*
G01*
X189011500Y-90171000D01*
X189062500Y-90184000D01*
X189110500Y-90203000D01*
X189157500Y-90227000D01*
X189201500Y-90255000D01*
X189242500Y-90288000D01*
X189279500Y-90325000D01*
X189312500Y-90366000D01*
X189340500Y-90410000D01*
X189364500Y-90457000D01*
X189383500Y-90505000D01*
X189396500Y-90556000D01*
X189404500Y-90608000D01*
X189407500Y-90660000D01*
X189404500Y-90712000D01*
X189396500Y-90764000D01*
X189383500Y-90815000D01*
X189364500Y-90863000D01*
X189340500Y-90910000D01*
X189312500Y-90954000D01*
X189279500Y-90995000D01*
X189242500Y-91032000D01*
X189201500Y-91065000D01*
X189157500Y-91093000D01*
X189110500Y-91117000D01*
X189062500Y-91136000D01*
X189011500Y-91149000D01*
X188959500Y-91157000D01*
X188907500Y-91160000D01*
X187107500Y-91160000D01*
X187055500Y-91157000D01*
X187003500Y-91149000D01*
X186952500Y-91136000D01*
X186904500Y-91117000D01*
X186857500Y-91093000D01*
X186813500Y-91065000D01*
X186772500Y-91032000D01*
X186735500Y-90995000D01*
X186702500Y-90954000D01*
X186674500Y-90910000D01*
X186650500Y-90863000D01*
X186631500Y-90815000D01*
X186618500Y-90764000D01*
X186610500Y-90712000D01*
X186607500Y-90660000D01*
X186610500Y-90608000D01*
X186618500Y-90556000D01*
X186631500Y-90505000D01*
X186650500Y-90457000D01*
X186674500Y-90410000D01*
X186702500Y-90366000D01*
X186735500Y-90325000D01*
X186772500Y-90288000D01*
X186813500Y-90255000D01*
X186857500Y-90227000D01*
X186904500Y-90203000D01*
X186952500Y-90184000D01*
X187003500Y-90171000D01*
X187055500Y-90163000D01*
X187107500Y-90160000D01*
X188907500Y-90160000D01*
X188959500Y-90163000D01*
G37*
X188959500Y-92703000D02*
X189011500Y-92711000D01*
X189062500Y-92724000D01*
X189110500Y-92743000D01*
X189157500Y-92767000D01*
X189201500Y-92795000D01*
X189242500Y-92828000D01*
X189279500Y-92865000D01*
X189312500Y-92906000D01*
X189340500Y-92950000D01*
X189364500Y-92997000D01*
X189383500Y-93045000D01*
X189396500Y-93096000D01*
X189404500Y-93148000D01*
X189407500Y-93200000D01*
X189404500Y-93252000D01*
X189396500Y-93304000D01*
X189383500Y-93355000D01*
X189364500Y-93403000D01*
X189340500Y-93450000D01*
X189312500Y-93494000D01*
X189279500Y-93535000D01*
X189242500Y-93572000D01*
X189201500Y-93605000D01*
X189157500Y-93633000D01*
X189110500Y-93657000D01*
X189062500Y-93676000D01*
X189011500Y-93689000D01*
X188959500Y-93697000D01*
X188907500Y-93700000D01*
X187107500Y-93700000D01*
X187055500Y-93697000D01*
X187003500Y-93689000D01*
X186952500Y-93676000D01*
X186904500Y-93657000D01*
X186857500Y-93633000D01*
X186813500Y-93605000D01*
X186772500Y-93572000D01*
X186735500Y-93535000D01*
X186702500Y-93494000D01*
X186674500Y-93450000D01*
X186650500Y-93403000D01*
X186631500Y-93355000D01*
X186618500Y-93304000D01*
X186610500Y-93252000D01*
X186607500Y-93200000D01*
X186610500Y-93148000D01*
X186618500Y-93096000D01*
X186631500Y-93045000D01*
X186650500Y-92997000D01*
X186674500Y-92950000D01*
X186702500Y-92906000D01*
X186735500Y-92865000D01*
X186772500Y-92828000D01*
X186813500Y-92795000D01*
X186857500Y-92767000D01*
X186904500Y-92743000D01*
X186952500Y-92724000D01*
X187003500Y-92711000D01*
X187055500Y-92703000D01*
X187107500Y-92700000D01*
X188907500Y-92700000D01*
X188959500Y-92703000D01*
G36*
X188959500Y-92703000D02*
G01*
X189011500Y-92711000D01*
X189062500Y-92724000D01*
X189110500Y-92743000D01*
X189157500Y-92767000D01*
X189201500Y-92795000D01*
X189242500Y-92828000D01*
X189279500Y-92865000D01*
X189312500Y-92906000D01*
X189340500Y-92950000D01*
X189364500Y-92997000D01*
X189383500Y-93045000D01*
X189396500Y-93096000D01*
X189404500Y-93148000D01*
X189407500Y-93200000D01*
X189404500Y-93252000D01*
X189396500Y-93304000D01*
X189383500Y-93355000D01*
X189364500Y-93403000D01*
X189340500Y-93450000D01*
X189312500Y-93494000D01*
X189279500Y-93535000D01*
X189242500Y-93572000D01*
X189201500Y-93605000D01*
X189157500Y-93633000D01*
X189110500Y-93657000D01*
X189062500Y-93676000D01*
X189011500Y-93689000D01*
X188959500Y-93697000D01*
X188907500Y-93700000D01*
X187107500Y-93700000D01*
X187055500Y-93697000D01*
X187003500Y-93689000D01*
X186952500Y-93676000D01*
X186904500Y-93657000D01*
X186857500Y-93633000D01*
X186813500Y-93605000D01*
X186772500Y-93572000D01*
X186735500Y-93535000D01*
X186702500Y-93494000D01*
X186674500Y-93450000D01*
X186650500Y-93403000D01*
X186631500Y-93355000D01*
X186618500Y-93304000D01*
X186610500Y-93252000D01*
X186607500Y-93200000D01*
X186610500Y-93148000D01*
X186618500Y-93096000D01*
X186631500Y-93045000D01*
X186650500Y-92997000D01*
X186674500Y-92950000D01*
X186702500Y-92906000D01*
X186735500Y-92865000D01*
X186772500Y-92828000D01*
X186813500Y-92795000D01*
X186857500Y-92767000D01*
X186904500Y-92743000D01*
X186952500Y-92724000D01*
X187003500Y-92711000D01*
X187055500Y-92703000D01*
X187107500Y-92700000D01*
X188907500Y-92700000D01*
X188959500Y-92703000D01*
G37*
X188959500Y-95243000D02*
X189011500Y-95251000D01*
X189062500Y-95264000D01*
X189110500Y-95283000D01*
X189157500Y-95307000D01*
X189201500Y-95335000D01*
X189242500Y-95368000D01*
X189279500Y-95405000D01*
X189312500Y-95446000D01*
X189340500Y-95490000D01*
X189364500Y-95537000D01*
X189383500Y-95585000D01*
X189396500Y-95636000D01*
X189404500Y-95688000D01*
X189407500Y-95740000D01*
X189404500Y-95792000D01*
X189396500Y-95844000D01*
X189383500Y-95895000D01*
X189364500Y-95943000D01*
X189340500Y-95990000D01*
X189312500Y-96034000D01*
X189279500Y-96075000D01*
X189242500Y-96112000D01*
X189201500Y-96145000D01*
X189157500Y-96173000D01*
X189110500Y-96197000D01*
X189062500Y-96216000D01*
X189011500Y-96229000D01*
X188959500Y-96237000D01*
X188907500Y-96240000D01*
X187107500Y-96240000D01*
X187055500Y-96237000D01*
X187003500Y-96229000D01*
X186952500Y-96216000D01*
X186904500Y-96197000D01*
X186857500Y-96173000D01*
X186813500Y-96145000D01*
X186772500Y-96112000D01*
X186735500Y-96075000D01*
X186702500Y-96034000D01*
X186674500Y-95990000D01*
X186650500Y-95943000D01*
X186631500Y-95895000D01*
X186618500Y-95844000D01*
X186610500Y-95792000D01*
X186607500Y-95740000D01*
X186610500Y-95688000D01*
X186618500Y-95636000D01*
X186631500Y-95585000D01*
X186650500Y-95537000D01*
X186674500Y-95490000D01*
X186702500Y-95446000D01*
X186735500Y-95405000D01*
X186772500Y-95368000D01*
X186813500Y-95335000D01*
X186857500Y-95307000D01*
X186904500Y-95283000D01*
X186952500Y-95264000D01*
X187003500Y-95251000D01*
X187055500Y-95243000D01*
X187107500Y-95240000D01*
X188907500Y-95240000D01*
X188959500Y-95243000D01*
G36*
X188959500Y-95243000D02*
G01*
X189011500Y-95251000D01*
X189062500Y-95264000D01*
X189110500Y-95283000D01*
X189157500Y-95307000D01*
X189201500Y-95335000D01*
X189242500Y-95368000D01*
X189279500Y-95405000D01*
X189312500Y-95446000D01*
X189340500Y-95490000D01*
X189364500Y-95537000D01*
X189383500Y-95585000D01*
X189396500Y-95636000D01*
X189404500Y-95688000D01*
X189407500Y-95740000D01*
X189404500Y-95792000D01*
X189396500Y-95844000D01*
X189383500Y-95895000D01*
X189364500Y-95943000D01*
X189340500Y-95990000D01*
X189312500Y-96034000D01*
X189279500Y-96075000D01*
X189242500Y-96112000D01*
X189201500Y-96145000D01*
X189157500Y-96173000D01*
X189110500Y-96197000D01*
X189062500Y-96216000D01*
X189011500Y-96229000D01*
X188959500Y-96237000D01*
X188907500Y-96240000D01*
X187107500Y-96240000D01*
X187055500Y-96237000D01*
X187003500Y-96229000D01*
X186952500Y-96216000D01*
X186904500Y-96197000D01*
X186857500Y-96173000D01*
X186813500Y-96145000D01*
X186772500Y-96112000D01*
X186735500Y-96075000D01*
X186702500Y-96034000D01*
X186674500Y-95990000D01*
X186650500Y-95943000D01*
X186631500Y-95895000D01*
X186618500Y-95844000D01*
X186610500Y-95792000D01*
X186607500Y-95740000D01*
X186610500Y-95688000D01*
X186618500Y-95636000D01*
X186631500Y-95585000D01*
X186650500Y-95537000D01*
X186674500Y-95490000D01*
X186702500Y-95446000D01*
X186735500Y-95405000D01*
X186772500Y-95368000D01*
X186813500Y-95335000D01*
X186857500Y-95307000D01*
X186904500Y-95283000D01*
X186952500Y-95264000D01*
X187003500Y-95251000D01*
X187055500Y-95243000D01*
X187107500Y-95240000D01*
X188907500Y-95240000D01*
X188959500Y-95243000D01*
G37*
X188959500Y-97783000D02*
X189011500Y-97791000D01*
X189062500Y-97804000D01*
X189110500Y-97823000D01*
X189157500Y-97847000D01*
X189201500Y-97875000D01*
X189242500Y-97908000D01*
X189279500Y-97945000D01*
X189312500Y-97986000D01*
X189340500Y-98030000D01*
X189364500Y-98077000D01*
X189383500Y-98125000D01*
X189396500Y-98176000D01*
X189404500Y-98228000D01*
X189407500Y-98280000D01*
X189404500Y-98332000D01*
X189396500Y-98384000D01*
X189383500Y-98435000D01*
X189364500Y-98483000D01*
X189340500Y-98530000D01*
X189312500Y-98574000D01*
X189279500Y-98615000D01*
X189242500Y-98652000D01*
X189201500Y-98685000D01*
X189157500Y-98713000D01*
X189110500Y-98737000D01*
X189062500Y-98756000D01*
X189011500Y-98769000D01*
X188959500Y-98777000D01*
X188907500Y-98780000D01*
X187107500Y-98780000D01*
X187055500Y-98777000D01*
X187003500Y-98769000D01*
X186952500Y-98756000D01*
X186904500Y-98737000D01*
X186857500Y-98713000D01*
X186813500Y-98685000D01*
X186772500Y-98652000D01*
X186735500Y-98615000D01*
X186702500Y-98574000D01*
X186674500Y-98530000D01*
X186650500Y-98483000D01*
X186631500Y-98435000D01*
X186618500Y-98384000D01*
X186610500Y-98332000D01*
X186607500Y-98280000D01*
X186610500Y-98228000D01*
X186618500Y-98176000D01*
X186631500Y-98125000D01*
X186650500Y-98077000D01*
X186674500Y-98030000D01*
X186702500Y-97986000D01*
X186735500Y-97945000D01*
X186772500Y-97908000D01*
X186813500Y-97875000D01*
X186857500Y-97847000D01*
X186904500Y-97823000D01*
X186952500Y-97804000D01*
X187003500Y-97791000D01*
X187055500Y-97783000D01*
X187107500Y-97780000D01*
X188907500Y-97780000D01*
X188959500Y-97783000D01*
G36*
X188959500Y-97783000D02*
G01*
X189011500Y-97791000D01*
X189062500Y-97804000D01*
X189110500Y-97823000D01*
X189157500Y-97847000D01*
X189201500Y-97875000D01*
X189242500Y-97908000D01*
X189279500Y-97945000D01*
X189312500Y-97986000D01*
X189340500Y-98030000D01*
X189364500Y-98077000D01*
X189383500Y-98125000D01*
X189396500Y-98176000D01*
X189404500Y-98228000D01*
X189407500Y-98280000D01*
X189404500Y-98332000D01*
X189396500Y-98384000D01*
X189383500Y-98435000D01*
X189364500Y-98483000D01*
X189340500Y-98530000D01*
X189312500Y-98574000D01*
X189279500Y-98615000D01*
X189242500Y-98652000D01*
X189201500Y-98685000D01*
X189157500Y-98713000D01*
X189110500Y-98737000D01*
X189062500Y-98756000D01*
X189011500Y-98769000D01*
X188959500Y-98777000D01*
X188907500Y-98780000D01*
X187107500Y-98780000D01*
X187055500Y-98777000D01*
X187003500Y-98769000D01*
X186952500Y-98756000D01*
X186904500Y-98737000D01*
X186857500Y-98713000D01*
X186813500Y-98685000D01*
X186772500Y-98652000D01*
X186735500Y-98615000D01*
X186702500Y-98574000D01*
X186674500Y-98530000D01*
X186650500Y-98483000D01*
X186631500Y-98435000D01*
X186618500Y-98384000D01*
X186610500Y-98332000D01*
X186607500Y-98280000D01*
X186610500Y-98228000D01*
X186618500Y-98176000D01*
X186631500Y-98125000D01*
X186650500Y-98077000D01*
X186674500Y-98030000D01*
X186702500Y-97986000D01*
X186735500Y-97945000D01*
X186772500Y-97908000D01*
X186813500Y-97875000D01*
X186857500Y-97847000D01*
X186904500Y-97823000D01*
X186952500Y-97804000D01*
X187003500Y-97791000D01*
X187055500Y-97783000D01*
X187107500Y-97780000D01*
X188907500Y-97780000D01*
X188959500Y-97783000D01*
G37*
X188959500Y-100323000D02*
X189011500Y-100331000D01*
X189062500Y-100344000D01*
X189110500Y-100363000D01*
X189157500Y-100387000D01*
X189201500Y-100415000D01*
X189242500Y-100448000D01*
X189279500Y-100485000D01*
X189312500Y-100526000D01*
X189340500Y-100570000D01*
X189364500Y-100617000D01*
X189383500Y-100665000D01*
X189396500Y-100716000D01*
X189404500Y-100768000D01*
X189407500Y-100820000D01*
X189404500Y-100872000D01*
X189396500Y-100924000D01*
X189383500Y-100975000D01*
X189364500Y-101023000D01*
X189340500Y-101070000D01*
X189312500Y-101114000D01*
X189279500Y-101155000D01*
X189242500Y-101192000D01*
X189201500Y-101225000D01*
X189157500Y-101253000D01*
X189110500Y-101277000D01*
X189062500Y-101296000D01*
X189011500Y-101309000D01*
X188959500Y-101317000D01*
X188907500Y-101320000D01*
X187107500Y-101320000D01*
X187055500Y-101317000D01*
X187003500Y-101309000D01*
X186952500Y-101296000D01*
X186904500Y-101277000D01*
X186857500Y-101253000D01*
X186813500Y-101225000D01*
X186772500Y-101192000D01*
X186735500Y-101155000D01*
X186702500Y-101114000D01*
X186674500Y-101070000D01*
X186650500Y-101023000D01*
X186631500Y-100975000D01*
X186618500Y-100924000D01*
X186610500Y-100872000D01*
X186607500Y-100820000D01*
X186610500Y-100768000D01*
X186618500Y-100716000D01*
X186631500Y-100665000D01*
X186650500Y-100617000D01*
X186674500Y-100570000D01*
X186702500Y-100526000D01*
X186735500Y-100485000D01*
X186772500Y-100448000D01*
X186813500Y-100415000D01*
X186857500Y-100387000D01*
X186904500Y-100363000D01*
X186952500Y-100344000D01*
X187003500Y-100331000D01*
X187055500Y-100323000D01*
X187107500Y-100320000D01*
X188907500Y-100320000D01*
X188959500Y-100323000D01*
G36*
X188959500Y-100323000D02*
G01*
X189011500Y-100331000D01*
X189062500Y-100344000D01*
X189110500Y-100363000D01*
X189157500Y-100387000D01*
X189201500Y-100415000D01*
X189242500Y-100448000D01*
X189279500Y-100485000D01*
X189312500Y-100526000D01*
X189340500Y-100570000D01*
X189364500Y-100617000D01*
X189383500Y-100665000D01*
X189396500Y-100716000D01*
X189404500Y-100768000D01*
X189407500Y-100820000D01*
X189404500Y-100872000D01*
X189396500Y-100924000D01*
X189383500Y-100975000D01*
X189364500Y-101023000D01*
X189340500Y-101070000D01*
X189312500Y-101114000D01*
X189279500Y-101155000D01*
X189242500Y-101192000D01*
X189201500Y-101225000D01*
X189157500Y-101253000D01*
X189110500Y-101277000D01*
X189062500Y-101296000D01*
X189011500Y-101309000D01*
X188959500Y-101317000D01*
X188907500Y-101320000D01*
X187107500Y-101320000D01*
X187055500Y-101317000D01*
X187003500Y-101309000D01*
X186952500Y-101296000D01*
X186904500Y-101277000D01*
X186857500Y-101253000D01*
X186813500Y-101225000D01*
X186772500Y-101192000D01*
X186735500Y-101155000D01*
X186702500Y-101114000D01*
X186674500Y-101070000D01*
X186650500Y-101023000D01*
X186631500Y-100975000D01*
X186618500Y-100924000D01*
X186610500Y-100872000D01*
X186607500Y-100820000D01*
X186610500Y-100768000D01*
X186618500Y-100716000D01*
X186631500Y-100665000D01*
X186650500Y-100617000D01*
X186674500Y-100570000D01*
X186702500Y-100526000D01*
X186735500Y-100485000D01*
X186772500Y-100448000D01*
X186813500Y-100415000D01*
X186857500Y-100387000D01*
X186904500Y-100363000D01*
X186952500Y-100344000D01*
X187003500Y-100331000D01*
X187055500Y-100323000D01*
X187107500Y-100320000D01*
X188907500Y-100320000D01*
X188959500Y-100323000D01*
G37*
%TO.C,U3*%
X192399680Y-114168942D02*
X192049680Y-114775160D01*
X191270257Y-114325160D01*
X191620257Y-113718942D01*
X192399680Y-114168942D01*
G36*
X192399680Y-114168942D02*
G01*
X192049680Y-114775160D01*
X191270257Y-114325160D01*
X191620257Y-113718942D01*
X192399680Y-114168942D01*
G37*
X192969776Y-112881507D02*
X192519776Y-113660929D01*
X191913558Y-113310929D01*
X192363558Y-112531507D01*
X192969776Y-112881507D01*
G36*
X192969776Y-112881507D02*
G01*
X192519776Y-113660929D01*
X191913558Y-113310929D01*
X192363558Y-112531507D01*
X192969776Y-112881507D01*
G37*
X193482211Y-114793942D02*
X193132211Y-115400160D01*
X192352789Y-114950160D01*
X192702789Y-114343942D01*
X193482211Y-114793942D01*
G36*
X193482211Y-114793942D02*
G01*
X193132211Y-115400160D01*
X192352789Y-114950160D01*
X192702789Y-114343942D01*
X193482211Y-114793942D01*
G37*
X193569776Y-111842276D02*
X193219776Y-112448494D01*
X192613558Y-112098494D01*
X192963558Y-111492276D01*
X193569776Y-111842276D01*
G36*
X193569776Y-111842276D02*
G01*
X193219776Y-112448494D01*
X192613558Y-112098494D01*
X192963558Y-111492276D01*
X193569776Y-111842276D01*
G37*
X194182211Y-113581507D02*
X193732211Y-114360929D01*
X192952789Y-113910929D01*
X193402789Y-113131507D01*
X194182211Y-113581507D01*
G36*
X194182211Y-113581507D02*
G01*
X193732211Y-114360929D01*
X192952789Y-113910929D01*
X193402789Y-113131507D01*
X194182211Y-113581507D01*
G37*
X194546442Y-115350641D02*
X194146442Y-116043461D01*
X193540224Y-115693461D01*
X193940224Y-115000641D01*
X194546442Y-115350641D01*
G36*
X194546442Y-115350641D02*
G01*
X194146442Y-116043461D01*
X193540224Y-115693461D01*
X193940224Y-115000641D01*
X194546442Y-115350641D01*
G37*
X194782211Y-112542276D02*
X194432211Y-113148494D01*
X193652789Y-112698494D01*
X194002789Y-112092276D01*
X194782211Y-112542276D01*
G36*
X194782211Y-112542276D02*
G01*
X194432211Y-113148494D01*
X193652789Y-112698494D01*
X194002789Y-112092276D01*
X194782211Y-112542276D01*
G37*
X195221442Y-114181507D02*
X194771442Y-114960929D01*
X194078622Y-114560929D01*
X194528622Y-113781507D01*
X195221442Y-114181507D01*
G36*
X195221442Y-114181507D02*
G01*
X194771442Y-114960929D01*
X194078622Y-114560929D01*
X194528622Y-113781507D01*
X195221442Y-114181507D01*
G37*
X195753141Y-113160577D02*
X195353141Y-113853398D01*
X194660320Y-113453398D01*
X195060320Y-112760577D01*
X195753141Y-113160577D01*
G36*
X195753141Y-113160577D02*
G01*
X195353141Y-113853398D01*
X194660320Y-113453398D01*
X195060320Y-112760577D01*
X195753141Y-113160577D01*
G37*
%TD*%
D11*
%TO.C,Y2*%
X200917500Y-117360000D03*
X198717500Y-117360000D03*
X198717500Y-119060000D03*
X200917500Y-119060000D03*
%TD*%
D12*
%TO.C,U1*%
X149512500Y-111710000D03*
X148242500Y-111710000D03*
X146972500Y-111710000D03*
X145702500Y-111710000D03*
X145702500Y-118910000D03*
X146972500Y-118910000D03*
X148242500Y-118910000D03*
X149512500Y-118910000D03*
%TD*%
D13*
%TO.C,C48*%
X196512500Y-87800000D03*
X198062500Y-87800000D03*
%TD*%
D14*
%TO.C,AE4*%
X193267500Y-84470000D03*
D15*
X194767500Y-82995000D03*
D14*
X196267500Y-84470000D03*
D15*
X194767500Y-85945000D03*
%TD*%
D13*
%TO.C,C7*%
X147182500Y-97080000D03*
X148732500Y-97080000D03*
%TD*%
D16*
%TO.C,D3*%
X173567500Y-119847500D03*
X173567500Y-118272500D03*
%TD*%
D17*
%TO.C,R4*%
X169077500Y-116335000D03*
X169077500Y-114685000D03*
%TD*%
D18*
%TO.C,C37*%
X140478108Y-118010000D03*
X138578108Y-118010000D03*
%TD*%
D17*
%TO.C,R13*%
X188357500Y-115245000D03*
X188357500Y-113595000D03*
%TD*%
D13*
%TO.C,C6*%
X147182500Y-93980000D03*
X148732500Y-93980000D03*
%TD*%
D19*
%TO.C,TH1*%
X147535000Y-89560000D03*
X149360000Y-89560000D03*
%TD*%
D20*
%TO.C,R17*%
X158617500Y-90135000D03*
X158617500Y-91785000D03*
%TD*%
D16*
%TO.C,D4*%
X171347500Y-119897500D03*
X171347500Y-118322500D03*
%TD*%
D13*
%TO.C,C1*%
X142697500Y-89200000D03*
X144247500Y-89200000D03*
%TD*%
D21*
%TO.C,U2*%
X145062500Y-106500000D03*
X145062500Y-106000000D03*
X145062500Y-105500000D03*
X145062500Y-105000000D03*
X145062500Y-104500000D03*
X145062500Y-104000000D03*
X145062500Y-103500000D03*
X145062500Y-103000000D03*
X145062500Y-102500000D03*
X145062500Y-102000000D03*
X145062500Y-101500000D03*
X145062500Y-101000000D03*
X145062500Y-100500000D03*
X145062500Y-100000000D03*
X145062500Y-99500000D03*
X145062500Y-99000000D03*
X145062500Y-98500000D03*
X145062500Y-98000000D03*
X145062500Y-97500000D03*
X145062500Y-97000000D03*
X145062500Y-96500000D03*
X145062500Y-96000000D03*
X145062500Y-95500000D03*
X145062500Y-95000000D03*
X145062500Y-94500000D03*
D22*
X143387500Y-92825000D03*
X142887500Y-92825000D03*
X142387500Y-92825000D03*
X141887500Y-92825000D03*
X141387500Y-92825000D03*
X140887500Y-92825000D03*
X140387500Y-92825000D03*
X139887500Y-92825000D03*
X139387500Y-92825000D03*
X138887500Y-92825000D03*
X138387500Y-92825000D03*
X137887500Y-92825000D03*
X137387500Y-92825000D03*
X136887500Y-92825000D03*
X136387500Y-92825000D03*
X135887500Y-92825000D03*
X135387500Y-92825000D03*
X134887500Y-92825000D03*
X134387500Y-92825000D03*
X133887500Y-92825000D03*
X133387500Y-92825000D03*
X132887500Y-92825000D03*
X132387500Y-92825000D03*
X131887500Y-92825000D03*
X131387500Y-92825000D03*
D21*
X129712500Y-94500000D03*
X129712500Y-95000000D03*
X129712500Y-95500000D03*
X129712500Y-96000000D03*
X129712500Y-96500000D03*
X129712500Y-97000000D03*
X129712500Y-97500000D03*
X129712500Y-98000000D03*
X129712500Y-98500000D03*
X129712500Y-99000000D03*
X129712500Y-99500000D03*
X129712500Y-100000000D03*
X129712500Y-100500000D03*
X129712500Y-101000000D03*
X129712500Y-101500000D03*
X129712500Y-102000000D03*
X129712500Y-102500000D03*
X129712500Y-103000000D03*
X129712500Y-103500000D03*
X129712500Y-104000000D03*
X129712500Y-104500000D03*
X129712500Y-105000000D03*
X129712500Y-105500000D03*
X129712500Y-106000000D03*
X129712500Y-106500000D03*
D22*
X131387500Y-108175000D03*
X131887500Y-108175000D03*
X132387500Y-108175000D03*
X132887500Y-108175000D03*
X133387500Y-108175000D03*
X133887500Y-108175000D03*
X134387500Y-108175000D03*
X134887500Y-108175000D03*
X135387500Y-108175000D03*
X135887500Y-108175000D03*
X136387500Y-108175000D03*
X136887500Y-108175000D03*
X137387500Y-108175000D03*
X137887500Y-108175000D03*
X138387500Y-108175000D03*
X138887500Y-108175000D03*
X139387500Y-108175000D03*
X139887500Y-108175000D03*
X140387500Y-108175000D03*
X140887500Y-108175000D03*
X141387500Y-108175000D03*
X141887500Y-108175000D03*
X142387500Y-108175000D03*
X142887500Y-108175000D03*
X143387500Y-108175000D03*
%TD*%
D23*
%TO.C,C14*%
X129232500Y-93180000D03*
X127682500Y-93180000D03*
%TD*%
D24*
%TO.C,C51*%
X166937500Y-95325000D03*
X166937500Y-93775000D03*
%TD*%
D25*
%TO.C,U5*%
X131590608Y-113890000D03*
X131590608Y-114840000D03*
X131590608Y-115790000D03*
X133865608Y-115790000D03*
X133865608Y-114840000D03*
X133865608Y-113890000D03*
%TD*%
D26*
%TO.C,C27*%
X188807500Y-116615000D03*
X188807500Y-118165000D03*
%TD*%
D27*
%TO.C,R20*%
X178657500Y-106750000D03*
X177637500Y-106750000D03*
%TD*%
%TO.C,R22*%
X178607500Y-109980000D03*
X177587500Y-109980000D03*
%TD*%
D13*
%TO.C,C42*%
X157662500Y-99600000D03*
X159212500Y-99600000D03*
%TD*%
D28*
%TO.C,R2*%
X119732500Y-91440000D03*
X121382500Y-91440000D03*
%TD*%
D13*
%TO.C,C13*%
X142707500Y-90780000D03*
X144257500Y-90780000D03*
%TD*%
D29*
%TO.C,J6*%
X161427500Y-105110000D03*
X160327500Y-105110000D03*
X159227500Y-105110000D03*
X158127500Y-105110000D03*
X157027500Y-105110000D03*
X155927500Y-105110000D03*
X154827500Y-105110000D03*
X153727500Y-105110000D03*
X152627500Y-105110000D03*
D30*
X151427500Y-106410000D03*
D31*
X166027500Y-106160000D03*
D32*
X151427500Y-115710000D03*
X166927500Y-115710000D03*
%TD*%
D23*
%TO.C,C22*%
X199982500Y-120770000D03*
X198432500Y-120770000D03*
%TD*%
D33*
%TO.C,J2*%
X118357500Y-88260000D03*
X118357500Y-84360000D03*
X119627500Y-88260000D03*
X119627500Y-84360000D03*
X120897500Y-88260000D03*
X120897500Y-84360000D03*
X122167500Y-88260000D03*
X122167500Y-84360000D03*
X123437500Y-88260000D03*
X123437500Y-84360000D03*
X124707500Y-88260000D03*
X124707500Y-84360000D03*
X125977500Y-88260000D03*
X125977500Y-84360000D03*
%TD*%
D34*
%TO.C,C17*%
X146957500Y-92700000D03*
X147917500Y-92700000D03*
%TD*%
D35*
%TO.C,SW3*%
X175767500Y-119570000D03*
X175767500Y-113270000D03*
X179567500Y-119570000D03*
X179567500Y-113270000D03*
%TD*%
D23*
%TO.C,C15*%
X127732500Y-106480000D03*
X126182500Y-106480000D03*
%TD*%
D36*
%TO.C,J1*%
X117880000Y-93022500D03*
X117880000Y-93822500D03*
D37*
X117880000Y-94972500D03*
X117880000Y-95972500D03*
X117880000Y-96472500D03*
X117880000Y-97472500D03*
D36*
X117880000Y-99422500D03*
X117880000Y-98622500D03*
D37*
X117880000Y-97972500D03*
X117880000Y-96972500D03*
X117880000Y-95472500D03*
X117880000Y-94472500D03*
%TD*%
D28*
%TO.C,R11*%
X191512500Y-108400000D03*
X193162500Y-108400000D03*
%TD*%
D13*
%TO.C,C11*%
X147082500Y-104280000D03*
X148632500Y-104280000D03*
%TD*%
D18*
%TO.C,C36*%
X140478108Y-120060000D03*
X138578108Y-120060000D03*
%TD*%
D28*
%TO.C,R7*%
X189202500Y-110170000D03*
X190852500Y-110170000D03*
%TD*%
D38*
%TO.C,C29*%
X199872500Y-111750000D03*
X199872500Y-110790000D03*
%TD*%
D34*
%TO.C,C9*%
X146907500Y-98400000D03*
X147867500Y-98400000D03*
%TD*%
D39*
%TO.C,SW1*%
X137427500Y-83460000D03*
X143727500Y-83460000D03*
X137427500Y-87260000D03*
X143727500Y-87260000D03*
%TD*%
D38*
%TO.C,C10*%
X131957500Y-91060000D03*
X131957500Y-90100000D03*
%TD*%
D40*
%TO.C,U13*%
X122195000Y-95107500D03*
X124095000Y-95107500D03*
X123145000Y-93232500D03*
%TD*%
D27*
%TO.C,R21*%
X178607500Y-108910000D03*
X177587500Y-108910000D03*
%TD*%
D17*
%TO.C,R5*%
X173497500Y-116225000D03*
X173497500Y-114575000D03*
%TD*%
D23*
%TO.C,C28*%
X127732500Y-108010000D03*
X126182500Y-108010000D03*
%TD*%
D41*
%TO.C,U8*%
X210287500Y-89650000D03*
X208287500Y-89650000D03*
X206287500Y-89650000D03*
X204287500Y-89650000D03*
X202287500Y-89650000D03*
X200287500Y-89650000D03*
X198287500Y-89650000D03*
X196287500Y-89650000D03*
D42*
X195087500Y-92350000D03*
X195087500Y-94350000D03*
X195087500Y-96350000D03*
X195087500Y-98350000D03*
X195087500Y-100350000D03*
X195087500Y-102350000D03*
D41*
X196287500Y-105050000D03*
X198287500Y-105050000D03*
X200287500Y-105050000D03*
X202287500Y-105050000D03*
X204287500Y-105050000D03*
X206287500Y-105050000D03*
X208287500Y-105050000D03*
X210287500Y-105050000D03*
D43*
X202287500Y-98350000D03*
%TD*%
D13*
%TO.C,C50*%
X199662500Y-87810000D03*
X201212500Y-87810000D03*
%TD*%
D20*
%TO.C,R16*%
X156977500Y-90090000D03*
X156977500Y-91740000D03*
%TD*%
D13*
%TO.C,C5*%
X135072500Y-89290000D03*
X136622500Y-89290000D03*
%TD*%
D26*
%TO.C,C49*%
X193707500Y-90320000D03*
X193707500Y-91870000D03*
%TD*%
D38*
%TO.C,C12*%
X132957500Y-91080000D03*
X132957500Y-90120000D03*
%TD*%
D24*
%TO.C,C21*%
X202817500Y-118785000D03*
X202817500Y-117235000D03*
%TD*%
D44*
%TO.C,U3*%
X196308044Y-112499456D03*
X195875032Y-112249456D03*
X195442019Y-111999456D03*
X195009006Y-111749456D03*
X194575994Y-111499456D03*
X194142981Y-111249456D03*
X193709968Y-110999456D03*
X193276956Y-110749456D03*
D45*
X192320738Y-111005674D03*
X192070738Y-111438686D03*
X191820738Y-111871699D03*
X191570738Y-112304712D03*
X191320738Y-112737724D03*
X191070738Y-113170737D03*
X190820738Y-113603750D03*
X190570738Y-114036762D03*
D44*
X190826956Y-114992980D03*
X191259968Y-115242980D03*
X191692981Y-115492980D03*
X192125994Y-115742980D03*
X192559006Y-115992980D03*
X192992019Y-116242980D03*
X193425032Y-116492980D03*
X193858044Y-116742980D03*
D45*
X194814262Y-116486762D03*
X195064262Y-116053750D03*
X195314262Y-115620737D03*
X195564262Y-115187724D03*
X195814262Y-114754712D03*
X196064262Y-114321699D03*
X196314262Y-113888686D03*
X196564262Y-113455674D03*
%TD*%
D46*
%TO.C,C3*%
X151272500Y-103200000D03*
X150312500Y-103200000D03*
%TD*%
D47*
%TO.C,Y1*%
X152037500Y-101600000D03*
X152037500Y-99400000D03*
X150337500Y-99400000D03*
X150337500Y-101600000D03*
%TD*%
D48*
%TO.C,R8*%
X172627500Y-108330000D03*
X173647500Y-108330000D03*
%TD*%
D49*
%TO.C,R1*%
X140352500Y-89260000D03*
X138702500Y-89260000D03*
%TD*%
D48*
%TO.C,R9*%
X172667500Y-107270000D03*
X173687500Y-107270000D03*
%TD*%
D50*
%TO.C,AE1*%
X205872500Y-111640000D03*
X208972500Y-111640000D03*
%TD*%
D51*
%TO.C,R14*%
X195917500Y-119907020D03*
X195917500Y-118887020D03*
%TD*%
D16*
%TO.C,D2*%
X169047500Y-119867500D03*
X169047500Y-118292500D03*
%TD*%
D24*
%TO.C,C53*%
X166367500Y-90425000D03*
X166367500Y-88875000D03*
%TD*%
D52*
%TO.C,U14*%
X157057500Y-93480000D03*
X157057500Y-94280000D03*
X157057500Y-95080000D03*
X157057500Y-95880000D03*
X157057500Y-96680000D03*
X157057500Y-97480000D03*
D53*
X158057500Y-97480000D03*
D52*
X159057500Y-97480000D03*
X159057500Y-96680000D03*
X159057500Y-95880000D03*
X159057500Y-95080000D03*
X159057500Y-94280000D03*
X159057500Y-93480000D03*
D53*
X158057500Y-93480000D03*
%TD*%
D23*
%TO.C,C46*%
X206277500Y-87690000D03*
X204727500Y-87690000D03*
%TD*%
D24*
%TO.C,C20*%
X153247500Y-87255000D03*
X153247500Y-85705000D03*
%TD*%
D16*
%TO.C,D6*%
X143467500Y-120597500D03*
X143467500Y-119022500D03*
%TD*%
D54*
%TO.C,C33*%
X131408108Y-117670000D03*
X133308108Y-117670000D03*
%TD*%
D27*
%TO.C,R23*%
X178637500Y-107830000D03*
X177617500Y-107830000D03*
%TD*%
D39*
%TO.C,SW2*%
X134947500Y-87290000D03*
X128647500Y-87290000D03*
X134947500Y-83490000D03*
X128647500Y-83490000D03*
%TD*%
D13*
%TO.C,C26*%
X198282500Y-114270000D03*
X199832500Y-114270000D03*
%TD*%
D49*
%TO.C,R18*%
X210107500Y-87710000D03*
X208457500Y-87710000D03*
%TD*%
D13*
%TO.C,C8*%
X145522500Y-108200000D03*
X147072500Y-108200000D03*
%TD*%
D55*
%TO.C,D5*%
X192027500Y-118022500D03*
X192027500Y-119597500D03*
%TD*%
D24*
%TO.C,C25*%
X196567500Y-110605000D03*
X196567500Y-109055000D03*
%TD*%
D35*
%TO.C,SW4*%
X185747500Y-113250000D03*
X185747500Y-119550000D03*
X181947500Y-113250000D03*
X181947500Y-119550000D03*
%TD*%
D26*
%TO.C,C52*%
X166937500Y-96875000D03*
X166937500Y-98425000D03*
%TD*%
D28*
%TO.C,R12*%
X188027500Y-112030000D03*
X189677500Y-112030000D03*
%TD*%
D20*
%TO.C,R10*%
X194947500Y-108025000D03*
X194947500Y-109675000D03*
%TD*%
D13*
%TO.C,C18*%
X147182500Y-95580000D03*
X148732500Y-95580000D03*
%TD*%
%TO.C,C16*%
X147012500Y-102400000D03*
X148562500Y-102400000D03*
%TD*%
D51*
%TO.C,R15*%
X194837500Y-119880000D03*
X194837500Y-118860000D03*
%TD*%
D23*
%TO.C,C47*%
X194532500Y-88060000D03*
X192982500Y-88060000D03*
%TD*%
%TO.C,C45*%
X158002500Y-103210000D03*
X156452500Y-103210000D03*
%TD*%
D38*
%TO.C,C30*%
X203562500Y-111680000D03*
X203562500Y-110720000D03*
%TD*%
D25*
%TO.C,U10*%
X122010000Y-97290000D03*
X122010000Y-98240000D03*
X122010000Y-99190000D03*
X124285000Y-99190000D03*
X124285000Y-98240000D03*
X124285000Y-97290000D03*
%TD*%
D56*
%TO.C,C31*%
X119217500Y-119110000D03*
X119217500Y-117210000D03*
%TD*%
D54*
%TO.C,C34*%
X131428108Y-119770000D03*
X133328108Y-119770000D03*
%TD*%
D17*
%TO.C,R24*%
X143507500Y-117620000D03*
X143507500Y-115970000D03*
%TD*%
D13*
%TO.C,C35*%
X132738108Y-111820000D03*
X134288108Y-111820000D03*
%TD*%
D57*
%TO.C,L1*%
X201267500Y-111700000D03*
X202237500Y-111700000D03*
%TD*%
D23*
%TO.C,C19*%
X127732500Y-104880000D03*
X126182500Y-104880000D03*
%TD*%
D56*
%TO.C,C32*%
X119217500Y-115310000D03*
X119217500Y-113410000D03*
%TD*%
D17*
%TO.C,R19*%
X193087500Y-95100000D03*
X193087500Y-93450000D03*
%TD*%
D23*
%TO.C,C40*%
X152912500Y-90150000D03*
X151362500Y-90150000D03*
%TD*%
D58*
%TO.C,L2*%
X136312808Y-113990000D03*
X140163408Y-113990000D03*
%TD*%
D23*
%TO.C,C44*%
X152962500Y-93250000D03*
X151412500Y-93250000D03*
%TD*%
D34*
%TO.C,C4*%
X151007500Y-97900000D03*
X151967500Y-97900000D03*
%TD*%
D26*
%TO.C,C24*%
X190347500Y-116635000D03*
X190347500Y-118185000D03*
%TD*%
D23*
%TO.C,C43*%
X152937500Y-91700000D03*
X151387500Y-91700000D03*
%TD*%
D36*
%TO.C,J5*%
X117862500Y-103390000D03*
X117862500Y-104190000D03*
D37*
X117862500Y-105340000D03*
X117862500Y-106340000D03*
X117862500Y-106840000D03*
X117862500Y-107840000D03*
D36*
X117862500Y-109790000D03*
X117862500Y-108990000D03*
D37*
X117862500Y-108340000D03*
X117862500Y-107340000D03*
X117862500Y-105840000D03*
X117862500Y-104840000D03*
%TD*%
D13*
%TO.C,C23*%
X175457500Y-111290000D03*
X177007500Y-111290000D03*
%TD*%
D24*
%TO.C,C38*%
X160667500Y-96395000D03*
X160667500Y-94845000D03*
%TD*%
D17*
%TO.C,R6*%
X171347500Y-116305000D03*
X171347500Y-114655000D03*
%TD*%
D59*
%TO.C,D1*%
X146517500Y-83620000D03*
X146517500Y-86820000D03*
X151417500Y-86820000D03*
X151417500Y-83620000D03*
%TD*%
D60*
%TO.C,U11*%
X163187500Y-88580000D03*
X163187500Y-89380000D03*
X164587500Y-89380000D03*
X164587500Y-88580000D03*
%TD*%
D61*
%TO.C,U4*%
X121567500Y-114010000D03*
X121567500Y-116310000D03*
D62*
X127867500Y-116310000D03*
D61*
X121567500Y-118610000D03*
%TD*%
D49*
%TO.C,R3*%
X149052500Y-91330000D03*
X147402500Y-91330000D03*
%TD*%
D13*
%TO.C,C39*%
X157662500Y-101150000D03*
X159212500Y-101150000D03*
%TD*%
D23*
%TO.C,C2*%
X149732500Y-120830000D03*
X148182500Y-120830000D03*
%TD*%
M02*
